<svg width="169" height="169" viewBox="0 0 169 169" fill="none" xmlns="http://www.w3.org/2000/svg">
    <path d="M56.5459 125.181V116.03C56.5459 111.176 58.4742 106.52 61.9066 103.088C65.339 99.6554 69.9944 97.727 74.8486 97.727H93.1513C98.0055 97.727 102.661 99.6554 106.093 103.088C109.526 106.52 111.454 111.176 111.454 116.03V125.181M65.6972 61.1216C65.6972 65.9758 67.6255 70.6312 71.058 74.0636C74.4904 77.496 79.1458 79.4243 83.9999 79.4243C88.8541 79.4243 93.5095 77.496 96.9419 74.0636C100.374 70.6312 102.303 65.9758 102.303 61.1216C102.303 56.2674 100.374 51.612 96.9419 48.1796C93.5095 44.7472 88.8541 42.8189 83.9999 42.8189C79.1458 42.8189 74.4904 44.7472 71.058 48.1796C67.6255 51.612 65.6972 56.2674 65.6972 61.1216Z" stroke="#44474F" stroke-width="8" stroke-linecap="round" stroke-linejoin="round"/>
</svg>